<svg xmlns="http://www.w3.org/2000/svg" xmlns:xlink="http://www.w3.org/1999/xlink" width="500" zoomAndPan="magnify" viewBox="0 0 375 374.999991" height="500" preserveAspectRatio="xMidYMid meet" version="1.0"><defs><clipPath id="d04028bfe3"><path d="M 62 31 L 374.984375 31 L 374.984375 294 L 62 294 Z M 62 31 " clip-rule="nonzero"/></clipPath><clipPath id="9086c085e6"><path d="M 62 95 L 374.984375 95 L 374.984375 110.871094 L 62 110.871094 Z M 62 95 " clip-rule="nonzero"/></clipPath><clipPath id="ed040cb044"><path d="M 111 11.484375 L 127 11.484375 L 127 65 L 111 65 Z M 111 11.484375 " clip-rule="nonzero"/></clipPath><clipPath id="0a99acf3c6"><path d="M 177 11.484375 L 194 11.484375 L 194 65 L 177 65 Z M 177 11.484375 " clip-rule="nonzero"/></clipPath><clipPath id="df38044cb0"><path d="M 243 11.484375 L 260 11.484375 L 260 65 L 243 65 Z M 243 11.484375 " clip-rule="nonzero"/></clipPath><clipPath id="32c590a60c"><path d="M 310 11.484375 L 326 11.484375 L 326 65 L 310 65 Z M 310 11.484375 " clip-rule="nonzero"/></clipPath><clipPath id="a902ed39d2"><path d="M 0.0546875 133 L 230 133 L 230 363.234375 L 0.0546875 363.234375 Z M 0.0546875 133 " clip-rule="nonzero"/></clipPath></defs><g clip-path="url(#d04028bfe3)"><path fill="#ffffff" d="M 77.296875 131.898438 L 77.296875 59.75 C 77.296875 56.082031 78.804688 52.746094 81.226562 50.320312 C 83.652344 47.898438 86.992188 46.390625 90.65625 46.390625 L 346.363281 46.390625 C 350.027344 46.390625 353.367188 47.898438 355.789062 50.320312 C 358.210938 52.746094 359.71875 56.082031 359.71875 59.75 L 359.71875 265.28125 C 359.71875 268.945312 358.210938 272.285156 355.789062 274.710938 C 353.367188 277.132812 350.027344 278.640625 346.363281 278.640625 L 233.867188 278.640625 C 232.554688 283.835938 230.902344 288.9375 228.925781 293.90625 L 346.363281 293.90625 C 354.238281 293.90625 361.398438 290.6875 366.582031 285.503906 C 371.769531 280.316406 374.984375 273.160156 374.984375 265.28125 L 374.984375 59.75 C 374.984375 51.867188 371.769531 44.710938 366.582031 39.527344 C 361.398438 34.34375 354.238281 31.125 346.363281 31.125 L 90.65625 31.125 C 82.777344 31.125 75.621094 34.34375 70.433594 39.527344 C 65.25 44.710938 62.03125 51.867188 62.03125 59.75 L 62.03125 137.988281 C 66.976562 135.617188 72.074219 133.582031 77.296875 131.898438 " fill-opacity="1" fill-rule="nonzero"/></g><g clip-path="url(#9086c085e6)"><path fill="#ffffff" d="M 69.664062 95.449219 C 65.449219 95.449219 62.03125 98.863281 62.03125 103.082031 C 62.03125 107.296875 65.449219 110.714844 69.664062 110.714844 L 367.351562 110.714844 C 371.566406 110.714844 374.984375 107.296875 374.984375 103.082031 C 374.984375 98.863281 371.566406 95.449219 367.351562 95.449219 L 69.664062 95.449219 " fill-opacity="1" fill-rule="nonzero"/></g><g clip-path="url(#ed040cb044)"><path fill="#ffffff" d="M 126.914062 19.117188 C 126.914062 14.902344 123.496094 11.484375 119.28125 11.484375 C 115.066406 11.484375 111.648438 14.902344 111.648438 19.117188 L 111.648438 57.28125 C 111.648438 61.496094 115.066406 64.917969 119.28125 64.917969 C 123.496094 64.917969 126.914062 61.496094 126.914062 57.28125 L 126.914062 19.117188 " fill-opacity="1" fill-rule="nonzero"/></g><g clip-path="url(#0a99acf3c6)"><path fill="#ffffff" d="M 193.066406 19.117188 C 193.066406 14.902344 189.648438 11.484375 185.433594 11.484375 C 181.214844 11.484375 177.800781 14.902344 177.800781 19.117188 L 177.800781 57.28125 C 177.800781 61.496094 181.214844 64.917969 185.433594 64.917969 C 189.648438 64.917969 193.066406 61.496094 193.066406 57.28125 L 193.066406 19.117188 " fill-opacity="1" fill-rule="nonzero"/></g><g clip-path="url(#df38044cb0)"><path fill="#ffffff" d="M 259.214844 19.117188 C 259.214844 14.902344 255.800781 11.484375 251.582031 11.484375 C 247.371094 11.484375 243.949219 14.902344 243.949219 19.117188 L 243.949219 57.28125 C 243.949219 61.496094 247.371094 64.917969 251.582031 64.917969 C 255.800781 64.917969 259.214844 61.496094 259.214844 57.28125 L 259.214844 19.117188 " fill-opacity="1" fill-rule="nonzero"/></g><g clip-path="url(#32c590a60c)"><path fill="#ffffff" d="M 325.371094 19.117188 C 325.371094 14.902344 321.949219 11.484375 317.738281 11.484375 C 313.523438 11.484375 310.105469 14.902344 310.105469 19.117188 L 310.105469 57.28125 C 310.105469 61.496094 313.523438 64.917969 317.738281 64.917969 C 321.949219 64.917969 325.371094 61.496094 325.371094 57.28125 L 325.371094 19.117188 " fill-opacity="1" fill-rule="nonzero"/></g><g clip-path="url(#a902ed39d2)"><path fill="#ffffff" d="M 115.007812 133.613281 C 146.75 133.613281 175.484375 146.480469 196.289062 167.28125 C 217.089844 188.082031 229.957031 216.820312 229.957031 248.5625 C 229.957031 280.304688 217.089844 309.046875 196.289062 329.847656 C 175.484375 350.648438 146.75 363.515625 115.007812 363.515625 L 115.007812 348.25 C 142.535156 348.25 167.457031 337.089844 185.496094 319.054688 C 203.535156 301.011719 214.695312 276.09375 214.695312 248.5625 C 214.695312 221.039062 203.535156 196.117188 185.496094 178.074219 C 167.457031 160.039062 142.535156 148.878906 115.007812 148.878906 Z M 115.007812 133.613281 L 115.007812 148.878906 C 87.476562 148.878906 62.554688 160.039062 44.519531 178.074219 C 26.476562 196.117188 15.320312 221.039062 15.320312 248.5625 C 15.320312 276.09375 26.476562 301.011719 44.519531 319.054688 C 62.554688 337.089844 87.476562 348.25 115.007812 348.25 L 115.007812 363.515625 C 83.265625 363.515625 54.527344 350.648438 33.722656 329.847656 C 12.921875 309.046875 0.0546875 280.304688 0.0546875 248.5625 C 0.0546875 216.820312 12.921875 188.082031 33.722656 167.28125 C 54.527344 146.480469 83.265625 133.613281 115.007812 133.613281 " fill-opacity="1" fill-rule="nonzero"/></g><path fill="#ffffff" d="M 320.136719 125.871094 L 335.402344 125.871094 C 337.511719 125.871094 339.21875 127.578125 339.21875 129.6875 L 339.21875 161.070312 C 339.21875 163.179688 337.511719 164.886719 335.402344 164.886719 L 320.136719 164.886719 L 320.136719 157.253906 L 331.585938 157.253906 L 331.585938 133.503906 L 320.136719 133.503906 Z M 304.871094 125.871094 L 320.136719 125.871094 L 320.136719 133.503906 L 308.6875 133.503906 L 308.6875 157.253906 L 320.136719 157.253906 L 320.136719 164.886719 L 304.871094 164.886719 C 302.765625 164.886719 301.050781 163.179688 301.050781 161.070312 L 301.050781 129.6875 C 301.050781 127.578125 302.765625 125.871094 304.871094 125.871094 " fill-opacity="1" fill-rule="nonzero"/><path fill="#ffffff" d="M 260.488281 125.871094 L 275.753906 125.871094 C 277.863281 125.871094 279.570312 127.578125 279.570312 129.6875 L 279.570312 161.070312 C 279.570312 163.179688 277.863281 164.886719 275.753906 164.886719 L 260.488281 164.886719 L 260.488281 157.253906 L 271.9375 157.253906 L 271.9375 133.503906 L 260.488281 133.503906 Z M 245.222656 125.871094 L 260.488281 125.871094 L 260.488281 133.503906 L 249.039062 133.503906 L 249.039062 157.253906 L 260.488281 157.253906 L 260.488281 164.886719 L 245.222656 164.886719 C 243.117188 164.886719 241.40625 163.179688 241.40625 161.070312 L 241.40625 129.6875 C 241.40625 127.578125 243.117188 125.871094 245.222656 125.871094 " fill-opacity="1" fill-rule="nonzero"/><path fill="#ffffff" d="M 320.136719 174.65625 L 335.402344 174.65625 C 337.511719 174.65625 339.21875 176.363281 339.21875 178.472656 L 339.21875 209.855469 C 339.21875 211.964844 337.511719 213.671875 335.402344 213.671875 L 320.136719 213.671875 L 320.136719 206.039062 L 331.585938 206.039062 L 331.585938 182.289062 L 320.136719 182.289062 Z M 304.871094 174.65625 L 320.136719 174.65625 L 320.136719 182.289062 L 308.6875 182.289062 L 308.6875 206.039062 L 320.136719 206.039062 L 320.136719 213.671875 L 304.871094 213.671875 C 302.765625 213.671875 301.050781 211.964844 301.050781 209.855469 L 301.050781 178.472656 C 301.050781 176.363281 302.765625 174.65625 304.871094 174.65625 " fill-opacity="1" fill-rule="nonzero"/><path fill="#ffffff" d="M 260.488281 174.65625 L 275.753906 174.65625 C 277.863281 174.65625 279.570312 176.363281 279.570312 178.472656 L 279.570312 209.855469 C 279.570312 211.964844 277.863281 213.671875 275.753906 213.671875 L 260.488281 213.671875 L 260.488281 206.039062 L 271.9375 206.039062 L 271.9375 182.289062 L 260.488281 182.289062 Z M 245.222656 174.65625 L 260.488281 174.65625 L 260.488281 182.289062 L 249.039062 182.289062 L 249.039062 206.039062 L 260.488281 206.039062 L 260.488281 213.671875 L 245.222656 213.671875 C 243.117188 213.671875 241.40625 211.964844 241.40625 209.855469 L 241.40625 178.472656 C 241.40625 176.363281 243.117188 174.65625 245.222656 174.65625 " fill-opacity="1" fill-rule="nonzero"/><path fill="#ffffff" d="M 320.136719 223.441406 L 335.402344 223.441406 C 337.511719 223.441406 339.21875 225.148438 339.21875 227.257812 L 339.21875 258.640625 C 339.21875 260.75 337.511719 262.457031 335.402344 262.457031 L 320.136719 262.457031 L 320.136719 254.824219 L 331.585938 254.824219 L 331.585938 231.074219 L 320.136719 231.074219 Z M 304.871094 223.441406 L 320.136719 223.441406 L 320.136719 231.074219 L 308.6875 231.074219 L 308.6875 254.824219 L 320.136719 254.824219 L 320.136719 262.457031 L 304.871094 262.457031 C 302.765625 262.457031 301.050781 260.75 301.050781 258.640625 L 301.050781 227.257812 C 301.050781 225.148438 302.765625 223.441406 304.871094 223.441406 " fill-opacity="1" fill-rule="nonzero"/><path fill="#ffffff" d="M 260.488281 223.441406 L 275.753906 223.441406 C 277.863281 223.441406 279.570312 225.148438 279.570312 227.257812 L 279.570312 258.640625 C 279.570312 260.75 277.863281 262.457031 275.753906 262.457031 L 260.488281 262.457031 L 260.488281 254.824219 L 271.9375 254.824219 L 271.9375 231.074219 L 260.488281 231.074219 Z M 245.222656 223.441406 L 260.488281 223.441406 L 260.488281 231.074219 L 249.039062 231.074219 L 249.039062 254.824219 L 260.488281 254.824219 L 260.488281 262.457031 L 245.222656 262.457031 C 243.117188 262.457031 241.40625 260.75 241.40625 258.640625 L 241.40625 227.257812 C 241.40625 225.148438 243.117188 223.441406 245.222656 223.441406 " fill-opacity="1" fill-rule="nonzero"/><path fill="#ffffff" d="M 123.097656 171.777344 C 123.097656 167.5625 119.679688 164.144531 115.464844 164.144531 C 111.25 164.144531 107.832031 167.5625 107.832031 171.777344 L 107.832031 248.105469 C 107.832031 252.320312 111.25 255.742188 115.464844 255.742188 C 119.679688 255.742188 123.097656 252.320312 123.097656 248.105469 L 123.097656 171.777344 " fill-opacity="1" fill-rule="nonzero"/><path fill="#ffffff" d="M 120.261719 242.203125 C 117.007812 239.550781 112.210938 240.046875 109.558594 243.304688 C 106.910156 246.566406 107.40625 251.359375 110.664062 254.007812 L 152.164062 287.660156 C 155.425781 290.3125 160.214844 289.816406 162.867188 286.558594 C 165.519531 283.296875 165.027344 278.503906 161.765625 275.855469 L 120.261719 242.203125 " fill-opacity="1" fill-rule="nonzero"/></svg>