<svg xmlns="http://www.w3.org/2000/svg" xmlnsXlink="http://www.w3.org/1999/xlink" width="45.4" zoomAndPan="magnify" viewBox="0 0 375 374.999991" height="84.8" preserveAspectRatio="xMidYMid meet" version="1.0"><path fill="#ffffff" d="M 269.484375 186.042969 L 103.332031 186.042969 C 102.902344 186.042969 102.476562 186.085938 102.054688 186.171875 C 101.632812 186.253906 101.222656 186.378906 100.824219 186.542969 C 100.425781 186.707031 100.050781 186.910156 99.691406 187.148438 C 99.335938 187.386719 99.003906 187.660156 98.699219 187.960938 C 98.394531 188.265625 98.125 188.597656 97.886719 188.957031 C 97.648438 189.3125 97.445312 189.691406 97.28125 190.085938 C 97.117188 190.484375 96.992188 190.894531 96.90625 191.316406 C 96.824219 191.738281 96.78125 192.164062 96.78125 192.59375 C 96.78125 193.023438 96.824219 193.449219 96.90625 193.871094 C 96.992188 194.292969 97.117188 194.703125 97.28125 195.101562 C 97.445312 195.496094 97.648438 195.875 97.886719 196.230469 C 98.125 196.589844 98.394531 196.921875 98.699219 197.226562 C 99.003906 197.527344 99.335938 197.800781 99.691406 198.039062 C 100.050781 198.277344 100.425781 198.480469 100.824219 198.644531 C 101.222656 198.808594 101.632812 198.933594 102.054688 199.015625 C 102.476562 199.101562 102.902344 199.144531 103.332031 199.144531 L 269.484375 199.144531 C 269.914062 199.144531 270.339844 199.101562 270.761719 199.015625 C 271.183594 198.933594 271.59375 198.808594 271.992188 198.644531 C 272.390625 198.480469 272.765625 198.277344 273.125 198.039062 C 273.480469 197.800781 273.8125 197.527344 274.117188 197.226562 C 274.421875 196.921875 274.691406 196.589844 274.929688 196.230469 C 275.171875 195.875 275.371094 195.496094 275.535156 195.101562 C 275.699219 194.703125 275.824219 194.292969 275.910156 193.871094 C 275.992188 193.449219 276.035156 193.023438 276.035156 192.59375 C 276.035156 192.164062 275.992188 191.738281 275.910156 191.316406 C 275.824219 190.894531 275.699219 190.484375 275.535156 190.085938 C 275.371094 189.691406 275.171875 189.3125 274.929688 188.957031 C 274.691406 188.597656 274.421875 188.265625 274.117188 187.960938 C 273.8125 187.660156 273.480469 187.386719 273.125 187.148438 C 272.765625 186.910156 272.390625 186.707031 271.992188 186.542969 C 271.59375 186.378906 271.183594 186.253906 270.761719 186.171875 C 270.339844 186.085938 269.914062 186.042969 269.484375 186.042969 Z M 269.484375 186.042969 " fill-opacity="1" fill-rule="nonzero"/><path fill="#ffffff" d="M 269.484375 157.132812 L 103.332031 157.132812 C 102.902344 157.132812 102.476562 157.171875 102.054688 157.257812 C 101.632812 157.339844 101.222656 157.464844 100.824219 157.628906 C 100.425781 157.792969 100.050781 157.996094 99.691406 158.234375 C 99.335938 158.472656 99.003906 158.746094 98.699219 159.050781 C 98.394531 159.355469 98.125 159.683594 97.886719 160.042969 C 97.648438 160.398438 97.445312 160.777344 97.28125 161.175781 C 97.117188 161.570312 96.992188 161.980469 96.90625 162.402344 C 96.824219 162.824219 96.78125 163.25 96.78125 163.679688 C 96.78125 164.109375 96.824219 164.535156 96.90625 164.957031 C 96.992188 165.378906 97.117188 165.789062 97.28125 166.1875 C 97.445312 166.582031 97.648438 166.960938 97.886719 167.320312 C 98.125 167.675781 98.394531 168.007812 98.699219 168.3125 C 99.003906 168.617188 99.335938 168.886719 99.691406 169.125 C 100.050781 169.363281 100.425781 169.566406 100.824219 169.730469 C 101.222656 169.894531 101.632812 170.019531 102.054688 170.105469 C 102.476562 170.1875 102.902344 170.230469 103.332031 170.230469 L 269.484375 170.230469 C 269.914062 170.230469 270.339844 170.1875 270.761719 170.105469 C 271.183594 170.019531 271.59375 169.894531 271.992188 169.730469 C 272.390625 169.566406 272.765625 169.363281 273.125 169.125 C 273.480469 168.886719 273.8125 168.617188 274.117188 168.3125 C 274.421875 168.007812 274.691406 167.675781 274.929688 167.320312 C 275.171875 166.960938 275.371094 166.582031 275.535156 166.1875 C 275.699219 165.789062 275.824219 165.378906 275.910156 164.957031 C 275.992188 164.535156 276.035156 164.109375 276.035156 163.679688 C 276.035156 163.25 275.992188 162.824219 275.910156 162.402344 C 275.824219 161.980469 275.699219 161.570312 275.535156 161.175781 C 275.371094 160.777344 275.171875 160.398438 274.929688 160.042969 C 274.691406 159.683594 274.421875 159.355469 274.117188 159.050781 C 273.8125 158.746094 273.480469 158.472656 273.125 158.234375 C 272.765625 157.996094 272.390625 157.792969 271.992188 157.628906 C 271.59375 157.464844 271.183594 157.339844 270.761719 157.257812 C 270.339844 157.171875 269.914062 157.132812 269.484375 157.132812 Z M 269.484375 157.132812 " fill-opacity="1" fill-rule="nonzero"/><path fill="#ffffff" d="M 349.773438 280.109375 L 313.148438 161.15625 L 313.148438 56.566406 C 313.144531 55.707031 313.101562 54.847656 313.015625 53.996094 C 312.929688 53.140625 312.804688 52.289062 312.632812 51.449219 C 312.464844 50.605469 312.257812 49.773438 312.003906 48.953125 C 311.753906 48.128906 311.464844 47.324219 311.136719 46.527344 C 310.804688 45.734375 310.4375 44.960938 310.035156 44.203125 C 309.628906 43.445312 309.1875 42.710938 308.707031 41.996094 C 308.230469 41.28125 307.71875 40.59375 307.175781 39.929688 C 306.628906 39.265625 306.054688 38.628906 305.445312 38.019531 C 304.839844 37.414062 304.203125 36.835938 303.539062 36.292969 C 302.875 35.746094 302.183594 35.234375 301.472656 34.757812 C 300.757812 34.28125 300.019531 33.839844 299.265625 33.433594 C 298.507812 33.027344 297.730469 32.660156 296.9375 32.332031 C 296.144531 32 295.335938 31.710938 294.515625 31.460938 C 293.691406 31.210938 292.859375 31 292.019531 30.832031 C 291.175781 30.664062 290.328125 30.535156 289.472656 30.449219 C 288.617188 30.367188 287.761719 30.320312 286.902344 30.320312 L 273.027344 30.320312 L 270.40625 21.734375 C 270.148438 20.898438 269.851562 20.082031 269.511719 19.277344 C 269.171875 18.472656 268.796875 17.683594 268.382812 16.917969 C 267.964844 16.148438 267.511719 15.40625 267.023438 14.679688 C 266.535156 13.957031 266.011719 13.261719 265.457031 12.585938 C 264.898438 11.914062 264.3125 11.273438 263.691406 10.65625 C 263.070312 10.042969 262.421875 9.460938 261.746094 8.910156 C 261.066406 8.359375 260.367188 7.84375 259.636719 7.359375 C 258.910156 6.878906 258.160156 6.433594 257.390625 6.023438 C 256.617188 5.613281 255.828125 5.246094 255.019531 4.914062 C 254.214844 4.582031 253.390625 4.292969 252.554688 4.039062 C 251.71875 3.789062 250.871094 3.582031 250.015625 3.414062 C 249.160156 3.246094 248.296875 3.117188 247.425781 3.035156 C 246.558594 2.953125 245.6875 2.910156 244.816406 2.914062 C 243.941406 2.914062 243.070312 2.960938 242.203125 3.046875 C 241.332031 3.132812 240.472656 3.265625 239.617188 3.4375 C 238.761719 3.605469 237.914062 3.820312 237.078125 4.074219 L 152.621094 30.027344 L 151.941406 30.320312 L 86.0625 30.320312 C 85.203125 30.320312 84.34375 30.367188 83.488281 30.449219 C 82.636719 30.535156 81.785156 30.664062 80.945312 30.832031 C 80.101562 31 79.269531 31.210938 78.449219 31.460938 C 77.625 31.710938 76.816406 32 76.023438 32.332031 C 75.230469 32.660156 74.457031 33.027344 73.699219 33.433594 C 72.941406 33.839844 72.207031 34.28125 71.492188 34.757812 C 70.777344 35.234375 70.089844 35.746094 69.425781 36.292969 C 68.761719 36.835938 68.125 37.414062 67.515625 38.019531 C 66.910156 38.628906 66.332031 39.265625 65.789062 39.929688 C 65.242188 40.59375 64.730469 41.28125 64.253906 41.996094 C 63.777344 42.710938 63.335938 43.445312 62.929688 44.203125 C 62.523438 44.960938 62.15625 45.734375 61.828125 46.527344 C 61.496094 47.324219 61.207031 48.128906 60.957031 48.953125 C 60.707031 49.773438 60.496094 50.605469 60.328125 51.449219 C 60.160156 52.289062 60.03125 53.140625 59.945312 53.996094 C 59.859375 54.847656 59.816406 55.707031 59.816406 56.566406 L 59.816406 58.554688 L 40.945312 64.375 C 39.265625 64.882812 37.652344 65.550781 36.105469 66.375 C 34.558594 67.203125 33.109375 68.175781 31.753906 69.292969 C 30.402344 70.40625 29.171875 71.644531 28.0625 73.007812 C 26.957031 74.367188 25.996094 75.824219 25.179688 77.378906 C 24.347656 78.921875 23.683594 80.535156 23.175781 82.210938 C 22.671875 83.890625 22.335938 85.601562 22.175781 87.347656 C 22.011719 89.09375 22.023438 90.839844 22.210938 92.582031 C 22.398438 94.324219 22.757812 96.03125 23.285156 97.703125 L 59.816406 216.605469 L 59.816406 321.25 C 59.820312 322.105469 59.871094 322.957031 59.960938 323.808594 C 60.050781 324.660156 60.179688 325.507812 60.351562 326.34375 C 60.523438 327.183594 60.738281 328.011719 60.992188 328.828125 C 61.242188 329.648438 61.535156 330.449219 61.867188 331.238281 C 62.199219 332.027344 62.570312 332.800781 62.976562 333.554688 C 63.382812 334.304688 63.824219 335.039062 64.304688 335.75 C 64.78125 336.457031 65.292969 337.144531 65.839844 337.804688 C 66.382812 338.464844 66.960938 339.09375 67.566406 339.699219 C 68.175781 340.300781 68.808594 340.875 69.472656 341.417969 C 70.136719 341.957031 70.824219 342.464844 71.535156 342.941406 C 72.25 343.414062 72.984375 343.855469 73.738281 344.257812 C 74.492188 344.660156 75.265625 345.023438 76.058594 345.351562 C 76.847656 345.679688 77.65625 345.964844 78.472656 346.214844 C 79.292969 346.464844 80.121094 346.671875 80.960938 346.839844 C 81.800781 347.007812 82.648438 347.132812 83.5 347.21875 C 84.351562 347.304688 85.203125 347.347656 86.0625 347.347656 L 100.03125 347.347656 L 102.652344 355.886719 C 103.070312 357.242188 103.59375 358.554688 104.222656 359.828125 C 104.847656 361.097656 105.574219 362.3125 106.394531 363.46875 C 107.214844 364.628906 108.121094 365.710938 109.113281 366.726562 C 110.105469 367.738281 111.171875 368.664062 112.3125 369.507812 C 113.453125 370.351562 114.652344 371.101562 115.914062 371.753906 C 117.171875 372.40625 118.476562 372.957031 119.820312 373.402344 C 121.167969 373.847656 122.542969 374.183594 123.941406 374.410156 C 125.34375 374.636719 126.75 374.753906 128.167969 374.757812 C 130.835938 374.757812 133.4375 374.355469 135.980469 373.542969 L 221.3125 347.347656 L 287 347.347656 C 287.851562 347.34375 288.703125 347.296875 289.554688 347.210938 C 290.402344 347.121094 291.246094 346.992188 292.085938 346.824219 C 292.921875 346.652344 293.746094 346.441406 294.5625 346.191406 C 295.378906 345.941406 296.183594 345.652344 296.972656 345.324219 C 297.761719 344.996094 298.53125 344.628906 299.28125 344.226562 C 300.035156 343.820312 300.765625 343.382812 301.476562 342.90625 C 302.1875 342.433594 302.871094 341.921875 303.53125 341.382812 C 304.191406 340.839844 304.824219 340.269531 305.429688 339.664062 C 306.035156 339.0625 306.605469 338.429688 307.148438 337.769531 C 307.691406 337.109375 308.203125 336.425781 308.679688 335.71875 C 309.15625 335.007812 309.597656 334.277344 310 333.527344 C 310.40625 332.773438 310.773438 332.003906 311.105469 331.21875 C 311.433594 330.429688 311.726562 329.628906 311.976562 328.8125 C 312.230469 327.996094 312.441406 327.167969 312.613281 326.332031 C 312.785156 325.496094 312.914062 324.652344 313.003906 323.804688 C 313.09375 322.953125 313.140625 322.101562 313.148438 321.25 L 313.148438 319.257812 L 332.113281 313.390625 C 332.949219 313.132812 333.765625 312.835938 334.570312 312.496094 C 335.375 312.160156 336.160156 311.785156 336.929688 311.371094 C 337.695312 310.957031 338.441406 310.503906 339.164062 310.019531 C 339.886719 309.53125 340.585938 309.007812 341.257812 308.453125 C 341.929688 307.898438 342.574219 307.308594 343.1875 306.691406 C 343.800781 306.070312 344.382812 305.425781 344.933594 304.75 C 345.484375 304.074219 346.003906 303.371094 346.484375 302.644531 C 346.96875 301.917969 347.414062 301.167969 347.820312 300.398438 C 348.230469 299.628906 348.601562 298.839844 348.933594 298.03125 C 349.261719 297.226562 349.554688 296.40625 349.804688 295.570312 C 350.054688 294.734375 350.265625 293.890625 350.433594 293.035156 C 350.601562 292.179688 350.726562 291.316406 350.8125 290.449219 C 350.894531 289.578125 350.9375 288.710938 350.933594 287.835938 C 350.933594 286.964844 350.886719 286.097656 350.800781 285.226562 C 350.714844 284.359375 350.585938 283.5 350.414062 282.644531 C 350.242188 281.789062 350.027344 280.945312 349.773438 280.109375 Z M 328.28125 300.921875 L 313.242188 305.773438 L 313.242188 205.835938 L 337.402344 283.941406 C 337.660156 284.800781 337.832031 285.671875 337.917969 286.5625 C 338.003906 287.453125 338.003906 288.34375 337.914062 289.234375 C 337.824219 290.125 337.648438 291 337.386719 291.855469 C 337.125 292.710938 336.78125 293.53125 336.359375 294.320312 C 335.933594 295.109375 335.4375 295.847656 334.871094 296.539062 C 334.300781 297.230469 333.667969 297.859375 332.976562 298.425781 C 332.285156 298.988281 331.542969 299.484375 330.753906 299.902344 C 329.960938 300.324219 329.140625 300.664062 328.28125 300.921875 Z M 132.148438 361.175781 C 130.832031 361.558594 129.492188 361.75 128.121094 361.757812 C 126.300781 361.773438 124.550781 361.433594 122.867188 360.746094 C 121.1875 360.054688 119.703125 359.066406 118.417969 357.777344 C 116.878906 356.191406 115.8125 354.332031 115.214844 352.199219 L 113.761719 347.347656 L 176.828125 347.347656 Z M 240.910156 16.738281 C 242.203125 16.3125 243.53125 16.101562 244.890625 16.105469 C 245.613281 16.113281 246.332031 16.175781 247.046875 16.292969 C 247.757812 16.414062 248.457031 16.589844 249.144531 16.820312 C 249.828125 17.050781 250.492188 17.335938 251.132812 17.671875 C 251.773438 18.007812 252.382812 18.394531 252.960938 18.828125 C 253.542969 19.261719 254.082031 19.738281 254.585938 20.257812 C 255.089844 20.777344 255.546875 21.332031 255.960938 21.925781 C 256.375 22.519531 256.742188 23.140625 257.058594 23.792969 C 257.371094 24.445312 257.632812 25.117188 257.84375 25.808594 L 259.296875 30.660156 L 196.230469 30.660156 Z M 287 334.445312 L 86.0625 334.445312 C 85.199219 334.445312 84.347656 334.359375 83.5 334.191406 C 82.65625 334.023438 81.835938 333.777344 81.039062 333.449219 C 80.246094 333.117188 79.488281 332.714844 78.773438 332.238281 C 78.054688 331.761719 77.390625 331.21875 76.78125 330.609375 C 76.171875 330.003906 75.625 329.339844 75.144531 328.625 C 74.667969 327.910156 74.261719 327.15625 73.929688 326.363281 C 73.597656 325.566406 73.34375 324.746094 73.175781 323.902344 C 73.003906 323.058594 72.917969 322.207031 72.914062 321.34375 L 72.914062 56.566406 C 72.917969 55.703125 73.003906 54.847656 73.175781 54.003906 C 73.34375 53.160156 73.597656 52.335938 73.925781 51.542969 C 74.257812 50.746094 74.664062 49.988281 75.144531 49.273438 C 75.625 48.554688 76.167969 47.894531 76.777344 47.285156 C 77.386719 46.671875 78.050781 46.128906 78.769531 45.648438 C 79.484375 45.167969 80.242188 44.761719 81.039062 44.433594 C 81.832031 44.101562 82.652344 43.851562 83.5 43.679688 C 84.34375 43.507812 85.199219 43.421875 86.0625 43.417969 L 287 43.417969 C 287.859375 43.421875 288.710938 43.507812 289.554688 43.679688 C 290.402344 43.851562 291.21875 44.101562 292.015625 44.433594 C 292.808594 44.765625 293.5625 45.171875 294.28125 45.652344 C 294.996094 46.132812 295.65625 46.675781 296.261719 47.285156 C 296.871094 47.894531 297.414062 48.558594 297.890625 49.277344 C 298.367188 49.992188 298.773438 50.75 299.101562 51.546875 C 299.429688 52.339844 299.679688 53.160156 299.84375 54.007812 C 300.011719 54.851562 300.097656 55.703125 300.097656 56.566406 L 300.097656 321.25 C 300.097656 322.109375 300.011719 322.960938 299.84375 323.804688 C 299.675781 324.648438 299.429688 325.464844 299.101562 326.261719 C 298.769531 327.054688 298.367188 327.808594 297.890625 328.523438 C 297.410156 329.242188 296.867188 329.902344 296.261719 330.511719 C 295.652344 331.117188 294.992188 331.660156 294.277344 332.140625 C 293.5625 332.617188 292.804688 333.019531 292.011719 333.347656 C 291.214844 333.679688 290.398438 333.925781 289.554688 334.09375 C 288.710938 334.261719 287.859375 334.347656 287 334.347656 Z M 59.816406 171.925781 L 35.800781 93.824219 C 35.539062 92.972656 35.363281 92.105469 35.273438 91.21875 C 35.179688 90.332031 35.175781 89.449219 35.261719 88.5625 C 35.34375 87.675781 35.515625 86.808594 35.769531 85.953125 C 36.023438 85.101562 36.359375 84.28125 36.777344 83.496094 C 37.195312 82.710938 37.683594 81.972656 38.246094 81.28125 C 38.808594 80.59375 39.433594 79.964844 40.121094 79.398438 C 40.804688 78.832031 41.539062 78.335938 42.324219 77.914062 C 43.109375 77.492188 43.925781 77.152344 44.777344 76.890625 L 59.816406 72.285156 Z M 59.816406 171.925781 " fill-opacity="1" fill-rule="nonzero"/><path fill="#ffffff" d="M 269.484375 70.390625 L 103.332031 70.390625 C 102.902344 70.390625 102.476562 70.433594 102.054688 70.515625 C 101.632812 70.601562 101.222656 70.726562 100.824219 70.890625 C 100.425781 71.054688 100.050781 71.257812 99.691406 71.496094 C 99.335938 71.734375 99.003906 72.003906 98.699219 72.308594 C 98.394531 72.613281 98.125 72.945312 97.886719 73.300781 C 97.648438 73.660156 97.445312 74.035156 97.28125 74.433594 C 97.117188 74.832031 96.992188 75.242188 96.90625 75.664062 C 96.824219 76.085938 96.78125 76.511719 96.78125 76.941406 C 96.78125 77.371094 96.824219 77.796875 96.90625 78.21875 C 96.992188 78.640625 97.117188 79.050781 97.28125 79.445312 C 97.445312 79.84375 97.648438 80.222656 97.886719 80.578125 C 98.125 80.9375 98.394531 81.265625 98.699219 81.570312 C 99.003906 81.875 99.335938 82.148438 99.691406 82.386719 C 100.050781 82.625 100.425781 82.828125 100.824219 82.992188 C 101.222656 83.15625 101.632812 83.28125 102.054688 83.363281 C 102.476562 83.449219 102.902344 83.488281 103.332031 83.488281 L 269.484375 83.488281 C 269.917969 83.488281 270.34375 83.449219 270.765625 83.363281 C 271.1875 83.28125 271.597656 83.15625 271.992188 82.992188 C 272.390625 82.828125 272.769531 82.628906 273.128906 82.386719 C 273.484375 82.148438 273.816406 81.878906 274.121094 81.574219 C 274.425781 81.269531 274.695312 80.9375 274.9375 80.582031 C 275.175781 80.222656 275.378906 79.847656 275.542969 79.449219 C 275.707031 79.050781 275.832031 78.640625 275.914062 78.21875 C 276 77.796875 276.042969 77.371094 276.042969 76.941406 C 276.042969 76.511719 276 76.085938 275.914062 75.660156 C 275.832031 75.238281 275.707031 74.832031 275.542969 74.433594 C 275.378906 74.035156 275.175781 73.65625 274.9375 73.300781 C 274.695312 72.941406 274.425781 72.613281 274.121094 72.308594 C 273.816406 72.003906 273.484375 71.730469 273.128906 71.492188 C 272.769531 71.253906 272.390625 71.050781 271.992188 70.886719 C 271.597656 70.722656 271.1875 70.601562 270.765625 70.515625 C 270.34375 70.433594 269.917969 70.390625 269.484375 70.390625 Z M 269.484375 70.390625 " fill-opacity="1" fill-rule="nonzero"/><path fill="#ffffff" d="M 269.484375 128.21875 L 103.332031 128.21875 C 102.902344 128.21875 102.476562 128.261719 102.054688 128.34375 C 101.632812 128.425781 101.222656 128.550781 100.824219 128.714844 C 100.425781 128.882812 100.050781 129.082031 99.691406 129.320312 C 99.335938 129.5625 99.003906 129.832031 98.699219 130.136719 C 98.394531 130.441406 98.125 130.769531 97.886719 131.128906 C 97.648438 131.484375 97.445312 131.863281 97.28125 132.261719 C 97.117188 132.65625 96.992188 133.066406 96.90625 133.488281 C 96.824219 133.910156 96.78125 134.335938 96.78125 134.765625 C 96.78125 135.195312 96.824219 135.621094 96.90625 136.042969 C 96.992188 136.464844 97.117188 136.875 97.28125 137.273438 C 97.445312 137.671875 97.648438 138.046875 97.886719 138.40625 C 98.125 138.761719 98.394531 139.09375 98.699219 139.398438 C 99.003906 139.703125 99.335938 139.972656 99.691406 140.210938 C 100.050781 140.453125 100.425781 140.652344 100.824219 140.816406 C 101.222656 140.980469 101.632812 141.105469 102.054688 141.191406 C 102.476562 141.273438 102.902344 141.316406 103.332031 141.316406 L 269.484375 141.316406 C 269.914062 141.316406 270.339844 141.273438 270.761719 141.191406 C 271.183594 141.105469 271.59375 140.980469 271.992188 140.816406 C 272.390625 140.652344 272.765625 140.453125 273.125 140.210938 C 273.480469 139.972656 273.8125 139.703125 274.117188 139.398438 C 274.421875 139.09375 274.691406 138.761719 274.929688 138.40625 C 275.171875 138.046875 275.371094 137.671875 275.535156 137.273438 C 275.699219 136.875 275.824219 136.464844 275.910156 136.042969 C 275.992188 135.621094 276.035156 135.195312 276.035156 134.765625 C 276.035156 134.335938 275.992188 133.910156 275.910156 133.488281 C 275.824219 133.066406 275.699219 132.65625 275.535156 132.261719 C 275.371094 131.863281 275.171875 131.484375 274.929688 131.128906 C 274.691406 130.769531 274.421875 130.441406 274.117188 130.136719 C 273.8125 129.832031 273.480469 129.5625 273.125 129.320312 C 272.765625 129.082031 272.390625 128.882812 271.992188 128.714844 C 271.59375 128.550781 271.183594 128.425781 270.761719 128.34375 C 270.339844 128.261719 269.914062 128.21875 269.484375 128.21875 Z M 269.484375 128.21875 " fill-opacity="1" fill-rule="nonzero"/><path fill="#ffffff" d="M 269.484375 99.304688 L 103.332031 99.304688 C 102.902344 99.304688 102.476562 99.347656 102.054688 99.429688 C 101.632812 99.515625 101.222656 99.636719 100.824219 99.804688 C 100.425781 99.96875 100.050781 100.167969 99.691406 100.410156 C 99.335938 100.648438 99.003906 100.917969 98.699219 101.222656 C 98.394531 101.527344 98.125 101.859375 97.886719 102.214844 C 97.648438 102.574219 97.445312 102.949219 97.28125 103.347656 C 97.117188 103.746094 96.992188 104.15625 96.90625 104.574219 C 96.824219 104.996094 96.78125 105.421875 96.78125 105.855469 C 96.78125 106.285156 96.824219 106.710938 96.90625 107.132812 C 96.992188 107.554688 97.117188 107.960938 97.28125 108.359375 C 97.445312 108.757812 97.648438 109.132812 97.886719 109.492188 C 98.125 109.851562 98.394531 110.179688 98.699219 110.484375 C 99.003906 110.789062 99.335938 111.058594 99.691406 111.300781 C 100.050781 111.539062 100.425781 111.738281 100.824219 111.90625 C 101.222656 112.070312 101.632812 112.191406 102.054688 112.277344 C 102.476562 112.359375 102.902344 112.402344 103.332031 112.402344 L 269.484375 112.402344 C 269.914062 112.402344 270.339844 112.359375 270.761719 112.277344 C 271.183594 112.191406 271.59375 112.070312 271.992188 111.90625 C 272.390625 111.738281 272.765625 111.539062 273.125 111.300781 C 273.480469 111.058594 273.8125 110.789062 274.117188 110.484375 C 274.421875 110.179688 274.691406 109.851562 274.929688 109.492188 C 275.171875 109.132812 275.371094 108.757812 275.535156 108.359375 C 275.699219 107.960938 275.824219 107.554688 275.910156 107.132812 C 275.992188 106.710938 276.035156 106.285156 276.035156 105.855469 C 276.035156 105.421875 275.992188 104.996094 275.910156 104.574219 C 275.824219 104.15625 275.699219 103.746094 275.535156 103.347656 C 275.371094 102.949219 275.171875 102.574219 274.929688 102.214844 C 274.691406 101.859375 274.421875 101.527344 274.117188 101.222656 C 273.8125 100.917969 273.480469 100.648438 273.125 100.410156 C 272.765625 100.167969 272.390625 99.96875 271.992188 99.804688 C 271.59375 99.636719 271.183594 99.515625 270.761719 99.429688 C 270.339844 99.347656 269.914062 99.304688 269.484375 99.304688 Z M 269.484375 99.304688 " fill-opacity="1" fill-rule="nonzero"/><path fill="#ffffff" d="M 202.734375 298.109375 L 149.03125 298.109375 C 148.621094 298.144531 148.21875 298.214844 147.828125 298.324219 C 147.433594 298.433594 147.050781 298.582031 146.683594 298.761719 C 146.316406 298.941406 145.96875 299.15625 145.640625 299.398438 C 145.3125 299.644531 145.011719 299.917969 144.734375 300.21875 C 144.457031 300.523438 144.210938 300.847656 143.996094 301.195312 C 143.777344 301.542969 143.59375 301.90625 143.445312 302.289062 C 143.296875 302.667969 143.1875 303.0625 143.109375 303.464844 C 143.035156 303.867188 142.996094 304.273438 142.996094 304.679688 C 142.996094 305.089844 143.035156 305.496094 143.109375 305.898438 C 143.1875 306.300781 143.296875 306.695312 143.445312 307.074219 C 143.59375 307.457031 143.777344 307.820312 143.996094 308.167969 C 144.210938 308.515625 144.457031 308.839844 144.734375 309.140625 C 145.011719 309.445312 145.3125 309.71875 145.640625 309.960938 C 145.96875 310.207031 146.316406 310.421875 146.683594 310.601562 C 147.050781 310.78125 147.433594 310.929688 147.828125 311.039062 C 148.21875 311.148438 148.621094 311.21875 149.03125 311.253906 L 202.734375 311.253906 C 203.140625 311.21875 203.542969 311.148438 203.9375 311.039062 C 204.332031 310.929688 204.710938 310.78125 205.078125 310.601562 C 205.445312 310.421875 205.792969 310.207031 206.121094 309.960938 C 206.449219 309.71875 206.75 309.445312 207.027344 309.140625 C 207.304688 308.839844 207.550781 308.515625 207.769531 308.167969 C 207.984375 307.820312 208.167969 307.457031 208.316406 307.074219 C 208.464844 306.695312 208.578125 306.300781 208.652344 305.898438 C 208.726562 305.496094 208.765625 305.089844 208.765625 304.679688 C 208.765625 304.273438 208.726562 303.867188 208.652344 303.464844 C 208.578125 303.0625 208.464844 302.667969 208.316406 302.289062 C 208.167969 301.90625 207.984375 301.542969 207.769531 301.195312 C 207.550781 300.847656 207.304688 300.523438 207.027344 300.21875 C 206.75 299.917969 206.449219 299.644531 206.121094 299.398438 C 205.792969 299.15625 205.445312 298.941406 205.078125 298.761719 C 204.710938 298.582031 204.332031 298.433594 203.9375 298.324219 C 203.542969 298.214844 203.140625 298.144531 202.734375 298.109375 Z M 202.734375 298.109375 " fill-opacity="1" fill-rule="nonzero"/><path fill="#ffffff" d="M 222.527344 216.363281 C 221.53125 216.359375 220.582031 216.570312 219.679688 216.996094 C 218.777344 217.421875 218.011719 218.019531 217.382812 218.789062 L 176.195312 269.726562 L 157.90625 245.910156 C 157.320312 245.152344 156.601562 244.550781 155.757812 244.101562 C 154.910156 243.65625 154.011719 243.398438 153.054688 243.335938 C 151.574219 243.363281 150.246094 243.832031 149.078125 244.746094 C 148.738281 245.007812 148.425781 245.296875 148.144531 245.621094 C 147.859375 245.945312 147.613281 246.292969 147.398438 246.664062 C 147.183594 247.035156 147.007812 247.425781 146.867188 247.832031 C 146.730469 248.238281 146.632812 248.652344 146.578125 249.078125 C 146.519531 249.503906 146.507812 249.929688 146.535156 250.359375 C 146.5625 250.789062 146.628906 251.207031 146.742188 251.625 C 146.851562 252.039062 147 252.4375 147.191406 252.824219 C 147.378906 253.210938 147.605469 253.570312 147.867188 253.914062 L 170.859375 284.28125 C 171.167969 284.671875 171.511719 285.019531 171.898438 285.332031 C 172.285156 285.640625 172.699219 285.902344 173.144531 286.121094 C 173.589844 286.335938 174.054688 286.5 174.535156 286.609375 C 175.019531 286.71875 175.507812 286.777344 176.003906 286.777344 C 176.496094 286.777344 176.984375 286.71875 177.46875 286.609375 C 177.949219 286.5 178.414062 286.335938 178.859375 286.121094 C 179.304688 285.902344 179.722656 285.640625 180.105469 285.332031 C 180.492188 285.019531 180.839844 284.671875 181.144531 284.28125 L 227.570312 227.039062 C 227.84375 226.703125 228.082031 226.34375 228.285156 225.964844 C 228.488281 225.582031 228.652344 225.183594 228.777344 224.769531 C 228.902344 224.355469 228.984375 223.933594 229.027344 223.503906 C 229.066406 223.074219 229.066406 222.644531 229.023438 222.214844 C 228.980469 221.785156 228.898438 221.363281 228.769531 220.949219 C 228.644531 220.535156 228.480469 220.136719 228.277344 219.757812 C 228.074219 219.375 227.835938 219.019531 227.5625 218.683594 C 227.285156 218.351562 226.984375 218.046875 226.648438 217.773438 C 225.433594 216.835938 224.058594 216.367188 222.527344 216.363281 Z M 222.527344 216.363281 " fill-opacity="1" fill-rule="nonzero"/></svg>
