<svg xmlns="http://www.w3.org/2000/svg" xmlnsXlink="http://www.w3.org/1999/xlink" width="45.4" zoomAndPan="magnify" viewBox="0 0 375 374.999991" height="84.8" preserveAspectRatio="xMidYMid meet" version="1.0" className=""><defs><clipPath id="d15721983a"><path d="M 12 28 L 363.683594 28 L 363.683594 370 L 12 370 Z M 12 28 " clip-rule="nonzero"/></clipPath></defs><path fill="#ffffff" d="M 157.570312 240.289062 L 98.824219 256.019531 C 96.128906 256.761719 93.964844 259.875 93.964844 262.964844 L 93.964844 299.617188 C 93.964844 302.695312 96.128906 304.648438 98.824219 303.925781 L 157.507812 288.210938 L 157.507812 274.636719 L 108.824219 287.6875 L 108.824219 266.878906 L 157.539062 253.828125 Z M 279.011719 208.1875 C 278.425781 208.0625 277.785156 208.0625 277.109375 208.25 L 239.605469 218.304688 L 255.351562 227.636719 L 267.179688 224.449219 L 267.179688 234.625 L 282 243.425781 L 282 212.59375 C 282 210.269531 280.785156 208.585938 279.011719 208.1875 Z M 279.011719 208.1875 " fill-opacity="1" fill-rule="evenodd"/><g clip-path="url(#d15721983a)"><path fill="#ffffff" d="M 96.441406 92.035156 L 48.566406 104.875 C 28.917969 110.136719 12.808594 130.464844 12.808594 150.175781 L 12.808594 342.1875 C 12.808594 361.871094 28.925781 373.609375 48.566406 368.351562 L 162.152344 337.90625 C 158.699219 333.050781 157.4375 329.441406 157.4375 324.25 L 48.566406 353.414062 C 36.863281 356.554688 27.757812 349.839844 27.757812 338.179688 L 27.757812 146.167969 C 27.757812 134.523438 36.863281 122.945312 48.566406 119.789062 L 96.441406 106.988281 Z M 338.03125 28.925781 C 334.664062 28.78125 331.089844 29.171875 327.421875 30.148438 L 279.558594 42.980469 L 279.558594 57.929688 L 327.421875 45.089844 C 339.101562 41.972656 348.238281 48.660156 348.238281 60.316406 L 348.238281 252.328125 C 348.238281 263.96875 339.101562 275.558594 327.421875 278.703125 L 313.214844 282.492188 L 305.472656 299.519531 L 327.421875 293.621094 C 347.074219 288.363281 363.179688 267.980469 363.179688 248.320312 L 363.179688 56.308594 C 363.183594 40.292969 352.550781 29.566406 338.03125 28.925781 Z M 338.03125 28.925781 " fill-opacity="1" fill-rule="evenodd"/></g><path fill="#ffffff" d="M 187.992188 4.933594 C 148.832031 15.410156 117.105469 55.667969 117.105469 94.792969 C 117.105469 113.585938 124.5625 129.664062 137.855469 139.390625 C 151.160156 149.109375 169.183594 151.765625 187.992188 146.730469 C 206.78125 141.683594 224.851562 129.367188 238.144531 112.53125 C 251.441406 95.652344 258.894531 75.632812 258.894531 56.808594 C 258.894531 38.003906 251.4375 21.984375 238.109375 12.242188 C 224.816406 2.519531 206.78125 -0.117188 187.992188 4.933594 Z M 189.910156 33.683594 C 191.128906 33.414062 192.320312 33.269531 193.484375 33.234375 C 203.171875 32.988281 209.105469 41.203125 206.78125 51.597656 C 204.488281 61.996094 194.769531 70.644531 185.117188 70.886719 C 175.421875 71.160156 169.464844 62.945312 171.78125 52.523438 C 173.765625 43.597656 181.355469 35.675781 189.910156 33.683594 Z M 171.234375 87.148438 L 204.761719 78.164062 C 212.558594 76.050781 219.558594 79.207031 221.792969 85.714844 L 224.582031 93.808594 C 227.390625 102.09375 220.355469 109.191406 210.519531 114.320312 C 195.597656 122.140625 180.742188 126.148438 165.496094 126.363281 C 155.648438 126.550781 148.566406 123.214844 151.4375 113.4375 L 154.246094 103.804688 C 156.4375 96.101562 163.4375 89.226562 171.234375 87.148438 Z M 171.234375 87.148438 " fill-opacity="1" fill-rule="evenodd"/><path fill="#ffffff" d="M 279.011719 138.132812 C 278.425781 138.011719 277.785156 138.039062 277.109375 138.191406 L 98.832031 185.960938 C 96.136719 186.730469 93.972656 189.824219 93.972656 192.933594 L 93.972656 229.554688 C 93.972656 232.636719 96.136719 234.589844 98.832031 233.851562 L 159.230469 217.6875 L 166.660156 202.136719 L 108.832031 217.628906 L 108.832031 196.84375 L 267.1875 154.417969 L 267.1875 175.199219 L 198.144531 193.703125 L 213.878906 203.050781 L 277.117188 186.121094 C 279.808594 185.386719 282.003906 182.269531 282.003906 179.179688 L 282.003906 142.535156 C 282 140.21875 280.785156 138.53125 279.011719 138.132812 Z M 279.011719 138.132812 " fill-opacity="1" fill-rule="evenodd"/><path fill="#ffffff" d="M 191.566406 219.589844 L 283.871094 271.738281 L 259.417969 279.625 C 255.988281 280.726562 254.429688 284.722656 256.199219 287.847656 L 282.863281 334.96875 L 254.375 343.140625 L 224.210938 293.1875 C 222.898438 290.992188 220.234375 289.921875 217.75 290.652344 L 191.777344 298.539062 Z M 180.890625 206.015625 L 171.847656 224.941406 C 171.507812 225.675781 171.332031 226.46875 171.332031 227.292969 L 171.207031 325.003906 C 171.140625 328.855469 174.84375 331.667969 178.511719 330.570312 L 207.699219 321.765625 L 237.875 371.714844 C 239.21875 373.914062 241.871094 374.921875 244.382812 374.191406 L 283.925781 362.816406 C 285.492188 362.351562 286.777344 361.253906 287.472656 359.789062 L 296.300781 341.203125 C 297.308594 339.464844 297.308594 337.351562 296.300781 335.605469 L 277.292969 302.910156 L 289.066406 299.722656 C 290.589844 299.300781 291.695312 297.558594 292.332031 296.113281 L 301.28125 276.378906 L 301.3125 276.34375 C 301.34375 276.316406 301.34375 276.277344 301.371094 276.226562 C 302.527344 273.773438 301.804688 270.839844 299.628906 269.191406 L 189.417969 203.875 C 185.660156 201.613281 182.296875 203.117188 180.890625 206.015625 Z M 180.890625 206.015625 " fill-opacity="1" fill-rule="nonzero"/></svg>
