<svg xmlns="http://www.w3.org/2000/svg" xmlnsXlink="http://www.w3.org/1999/xlink" width="45.4" zoomAndPan="magnify" viewBox="0 0 375 374.999991" height="84.8" preserveAspectRatio="xMidYMid meet" version="1.0" className=""><defs><clipPath id="0961610f72"><path d="M 14.765625 69 L 60 69 L 60 77 L 14.765625 77 Z M 14.765625 69 " clip-rule="nonzero"/></clipPath><clipPath id="36d097ea04"><path d="M 315 69 L 360.515625 69 L 360.515625 77 L 315 77 Z M 315 69 " clip-rule="nonzero"/></clipPath></defs><path fill="#ffffff" d="M 67.855469 48.144531 L 41.292969 21.5 C 39.859375 20.066406 37.535156 20.058594 36.089844 21.492188 C 34.65625 22.925781 34.648438 25.25 36.082031 26.691406 L 62.644531 53.335938 C 63.359375 54.054688 64.308594 54.421875 65.246094 54.421875 C 66.183594 54.421875 67.117188 54.0625 67.835938 53.347656 C 69.289062 51.914062 69.289062 49.589844 67.855469 48.144531 Z M 67.855469 48.144531 " fill-opacity="1" fill-rule="nonzero"/><g clip-path="url(#0961610f72)"><path fill="#ffffff" d="M 56 69.488281 L 18.433594 69.488281 C 16.402344 69.488281 14.757812 71.132812 14.757812 73.164062 C 14.757812 75.195312 16.402344 76.839844 18.433594 76.839844 L 56 76.839844 C 58.03125 76.839844 59.675781 75.195312 59.675781 73.164062 C 59.675781 71.132812 58.03125 69.488281 56 69.488281 Z M 56 69.488281 " fill-opacity="1" fill-rule="nonzero"/></g><path fill="#ffffff" d="M 87.617188 45.132812 C 89.648438 45.132812 91.292969 43.488281 91.292969 41.457031 L 91.300781 3.769531 C 91.300781 1.738281 89.65625 0.09375 87.625 0.09375 C 85.597656 0.09375 83.953125 1.738281 83.953125 3.769531 L 83.941406 41.457031 C 83.941406 43.488281 85.585938 45.132812 87.617188 45.132812 Z M 87.617188 45.132812 " fill-opacity="1" fill-rule="nonzero"/><path fill="#ffffff" d="M 309.71875 54.421875 C 310.664062 54.421875 311.601562 54.0625 312.320312 53.335938 L 338.882812 26.691406 C 340.316406 25.257812 340.316406 22.925781 338.871094 21.492188 C 337.429688 20.058594 335.105469 20.058594 333.671875 21.5 L 307.109375 48.144531 C 305.675781 49.578125 305.675781 51.914062 307.117188 53.347656 C 307.84375 54.0625 308.78125 54.421875 309.71875 54.421875 Z M 309.71875 54.421875 " fill-opacity="1" fill-rule="nonzero"/><g clip-path="url(#36d097ea04)"><path fill="#ffffff" d="M 356.550781 69.488281 L 318.980469 69.488281 C 316.949219 69.488281 315.304688 71.132812 315.304688 73.164062 C 315.304688 75.195312 316.949219 76.839844 318.980469 76.839844 L 356.550781 76.839844 C 358.582031 76.839844 360.226562 75.195312 360.226562 73.164062 C 360.226562 71.132812 358.582031 69.488281 356.550781 69.488281 Z M 356.550781 69.488281 " fill-opacity="1" fill-rule="nonzero"/></g><path fill="#ffffff" d="M 287.363281 45.132812 C 289.394531 45.132812 291.039062 43.488281 291.039062 41.457031 L 291.03125 3.769531 C 291.03125 1.738281 289.386719 0.09375 287.355469 0.09375 C 285.324219 0.09375 283.679688 1.738281 283.679688 3.769531 L 283.6875 41.457031 C 283.6875 43.488281 285.332031 45.132812 287.363281 45.132812 Z M 287.363281 45.132812 " fill-opacity="1" fill-rule="nonzero"/><path fill="#ffffff" d="M 124.636719 89.085938 L 103.21875 89.085938 C 101.1875 89.085938 99.542969 90.730469 99.542969 92.761719 L 99.542969 114.207031 C 99.542969 116.238281 101.1875 117.882812 103.21875 117.882812 L 124.636719 117.882812 C 126.667969 117.882812 128.3125 116.238281 128.3125 114.207031 L 128.3125 92.761719 C 128.3125 90.730469 126.667969 89.085938 124.636719 89.085938 Z M 120.960938 110.53125 L 106.894531 110.53125 L 106.894531 96.4375 L 120.960938 96.4375 Z M 120.960938 110.53125 " fill-opacity="1" fill-rule="nonzero"/><path fill="#ffffff" d="M 145.640625 107.160156 L 270.597656 107.160156 C 272.625 107.160156 274.269531 105.515625 274.269531 103.484375 C 274.269531 101.453125 272.625 99.808594 270.597656 99.808594 L 145.640625 99.808594 C 143.609375 99.808594 141.964844 101.453125 141.964844 103.484375 C 141.964844 105.515625 143.609375 107.160156 145.640625 107.160156 Z M 145.640625 107.160156 " fill-opacity="1" fill-rule="nonzero"/><path fill="#ffffff" d="M 124.636719 135.578125 L 103.21875 135.578125 C 101.1875 135.578125 99.542969 137.222656 99.542969 139.253906 L 99.542969 160.699219 C 99.542969 162.730469 101.1875 164.375 103.21875 164.375 L 124.636719 164.375 C 126.667969 164.375 128.3125 162.730469 128.3125 160.699219 L 128.3125 139.253906 C 128.3125 137.222656 126.667969 135.578125 124.636719 135.578125 Z M 120.960938 157.023438 L 106.894531 157.023438 L 106.894531 142.929688 L 120.960938 142.929688 Z M 120.960938 157.023438 " fill-opacity="1" fill-rule="nonzero"/><path fill="#ffffff" d="M 124.636719 182.070312 L 103.21875 182.070312 C 101.1875 182.070312 99.542969 183.714844 99.542969 185.746094 L 99.542969 207.191406 C 99.542969 209.21875 101.1875 210.863281 103.21875 210.863281 L 124.636719 210.863281 C 126.667969 210.863281 128.3125 209.21875 128.3125 207.191406 L 128.3125 185.746094 C 128.3125 183.714844 126.667969 182.070312 124.636719 182.070312 Z M 120.960938 203.515625 L 106.894531 203.515625 L 106.894531 189.421875 L 120.960938 189.421875 Z M 120.960938 203.515625 " fill-opacity="1" fill-rule="nonzero"/><path fill="#ffffff" d="M 124.636719 228.550781 L 103.21875 228.550781 C 101.1875 228.550781 99.542969 230.195312 99.542969 232.226562 L 99.542969 253.671875 C 99.542969 255.703125 101.1875 257.347656 103.21875 257.347656 L 124.636719 257.347656 C 126.667969 257.347656 128.3125 255.703125 128.3125 253.671875 L 128.3125 232.226562 C 128.3125 230.195312 126.667969 228.550781 124.636719 228.550781 Z M 120.960938 249.996094 L 106.894531 249.996094 L 106.894531 235.902344 L 120.960938 235.902344 Z M 120.960938 249.996094 " fill-opacity="1" fill-rule="nonzero"/><path fill="#ffffff" d="M 124.636719 275.042969 L 103.21875 275.042969 C 101.1875 275.042969 99.542969 276.6875 99.542969 278.71875 L 99.542969 300.164062 C 99.542969 302.195312 101.1875 303.839844 103.21875 303.839844 L 124.636719 303.839844 C 126.667969 303.839844 128.3125 302.195312 128.3125 300.164062 L 128.3125 278.71875 C 128.3125 276.6875 126.667969 275.042969 124.636719 275.042969 Z M 120.960938 296.488281 L 106.894531 296.488281 L 106.894531 282.394531 L 120.960938 282.394531 Z M 120.960938 296.488281 " fill-opacity="1" fill-rule="nonzero"/><path fill="#ffffff" d="M 145.640625 285.765625 C 143.609375 285.765625 141.964844 287.410156 141.964844 289.441406 C 141.964844 291.472656 143.609375 293.117188 145.640625 293.117188 L 259.535156 293.117188 C 261.5625 293.117188 263.210938 291.472656 263.210938 289.441406 C 263.210938 287.410156 261.5625 285.765625 259.535156 285.765625 Z M 145.640625 285.765625 " fill-opacity="1" fill-rule="nonzero"/><path fill="#ffffff" d="M 124.636719 321.535156 L 103.21875 321.535156 C 101.1875 321.535156 99.542969 323.179688 99.542969 325.210938 L 99.542969 346.65625 C 99.542969 348.683594 101.1875 350.328125 103.21875 350.328125 L 124.636719 350.328125 C 126.667969 350.328125 128.3125 348.683594 128.3125 346.65625 L 128.3125 325.210938 C 128.3125 323.179688 126.667969 321.535156 124.636719 321.535156 Z M 120.960938 342.980469 L 106.894531 342.980469 L 106.894531 328.886719 L 120.960938 328.886719 Z M 120.960938 342.980469 " fill-opacity="1" fill-rule="nonzero"/><path fill="#ffffff" d="M 141.964844 335.933594 C 141.964844 337.960938 143.609375 339.605469 145.640625 339.605469 L 270.597656 339.605469 C 272.625 339.605469 274.269531 337.960938 274.269531 335.933594 C 274.269531 333.902344 272.625 332.257812 270.597656 332.257812 L 145.640625 332.257812 C 143.609375 332.257812 141.964844 333.902344 141.964844 335.933594 Z M 141.964844 335.933594 " fill-opacity="1" fill-rule="nonzero"/><path fill="#ffffff" d="M 345.71875 277.589844 L 305.886719 245.015625 L 305.886719 76.648438 C 305.886719 64.316406 295.871094 54.292969 283.558594 54.292969 L 91.171875 54.292969 C 78.859375 54.292969 68.847656 64.324219 68.847656 76.648438 L 68.847656 352.609375 C 68.847656 364.9375 78.859375 374.960938 91.171875 374.960938 L 283.550781 374.960938 C 295.863281 374.960938 305.878906 364.929688 305.878906 352.609375 L 305.878906 327.496094 C 311.242188 331.6875 317.867188 334.113281 324.769531 334.277344 C 325.015625 334.289062 325.265625 334.289062 325.523438 334.289062 C 334.148438 334.289062 342.492188 330.75 348.5 324.519531 C 354.675781 318.105469 357.917969 309.324219 357.386719 300.429688 C 356.851562 291.535156 352.597656 283.210938 345.71875 277.589844 Z M 264.46875 243.1875 C 263.863281 243.8125 263.253906 244.429688 262.628906 245.027344 C 261.894531 245.742188 261.132812 246.433594 260.371094 247.101562 C 257.265625 249.851562 253.9375 252.3125 250.410156 254.460938 C 249.675781 254.914062 248.941406 255.34375 248.1875 255.757812 C 221.320312 270.824219 187.066406 266.378906 164.90625 244.945312 C 136.957031 217.929688 136.148438 173.195312 163.125 145.207031 C 176.199219 131.644531 193.757812 123.992188 212.574219 123.660156 C 212.996094 123.652344 213.417969 123.652344 213.851562 123.652344 C 232.179688 123.652344 249.492188 130.652344 262.714844 143.433594 C 284.957031 164.933594 290.570312 199.132812 276.367188 226.59375 C 276.367188 226.59375 276.367188 226.59375 276.367188 226.605469 C 275.972656 227.367188 275.574219 228.109375 275.152344 228.855469 C 272.222656 234.066406 268.640625 238.871094 264.46875 243.1875 Z M 298.527344 352.609375 C 298.527344 360.886719 291.8125 367.613281 283.550781 367.613281 L 91.171875 367.613281 C 82.914062 367.613281 76.195312 360.878906 76.195312 352.609375 L 76.195312 76.648438 C 76.195312 68.367188 82.914062 61.644531 91.171875 61.644531 L 283.550781 61.644531 C 291.8125 61.644531 298.527344 68.378906 298.527344 76.648438 L 298.527344 239.007812 L 284.203125 227.300781 C 290.738281 213.335938 293.015625 197.40625 290.625 182.089844 C 287.988281 165.226562 280.105469 150.039062 267.8125 138.160156 C 252.871094 123.71875 233.230469 115.960938 212.4375 116.328125 C 191.652344 116.699219 172.257812 125.148438 157.824219 140.125 C 128.042969 171.027344 128.925781 220.429688 159.789062 250.246094 C 172.046875 262.097656 187.453125 269.457031 204.332031 271.507812 C 207.429688 271.882812 210.542969 272.066406 213.660156 272.066406 C 225.953125 272.066406 238.21875 269.144531 249.132812 263.578125 L 298.527344 319.964844 Z M 343.199219 319.421875 C 338.375 324.429688 331.898438 327.09375 324.941406 326.929688 C 317.996094 326.761719 311.648438 323.792969 307.074219 318.566406 L 255.65625 259.863281 C 255.847656 259.734375 256.042969 259.605469 256.234375 259.480469 C 256.492188 259.3125 256.75 259.140625 257.007812 258.964844 C 257.511719 258.625 258.007812 258.285156 258.496094 257.933594 C 258.714844 257.777344 258.9375 257.621094 259.15625 257.464844 C 259.863281 256.960938 260.554688 256.445312 261.242188 255.914062 C 261.261719 255.894531 261.289062 255.878906 261.308594 255.859375 C 261.96875 255.34375 262.628906 254.8125 263.273438 254.277344 C 263.484375 254.105469 263.6875 253.929688 263.890625 253.753906 C 264.359375 253.359375 264.828125 252.957031 265.285156 252.550781 C 265.507812 252.347656 265.734375 252.15625 265.957031 251.953125 C 266.414062 251.539062 266.867188 251.117188 267.308594 250.695312 C 267.5 250.511719 267.703125 250.328125 267.894531 250.144531 C 268.519531 249.539062 269.144531 248.921875 269.75 248.289062 C 270.355469 247.664062 270.9375 247.027344 271.523438 246.386719 C 271.699219 246.183594 271.882812 245.980469 272.058594 245.789062 C 272.460938 245.328125 272.855469 244.871094 273.25 244.410156 C 273.445312 244.179688 273.636719 243.949219 273.820312 243.722656 C 274.207031 243.253906 274.582031 242.773438 274.960938 242.304688 C 275.125 242.09375 275.292969 241.894531 275.457031 241.679688 C 276.503906 240.3125 277.515625 238.914062 278.46875 237.484375 C 278.617188 237.261719 278.753906 237.042969 278.902344 236.820312 C 279.234375 236.316406 279.5625 235.800781 279.875 235.285156 C 280.03125 235.03125 280.1875 234.773438 280.34375 234.515625 C 280.464844 234.320312 280.582031 234.128906 280.703125 233.925781 L 341.058594 283.277344 C 346.433594 287.667969 349.621094 293.914062 350.035156 300.863281 C 350.457031 307.816406 348.03125 314.40625 343.199219 319.421875 Z M 343.199219 319.421875 " fill-opacity="1" fill-rule="nonzero"/><path fill="#ffffff" d="M 250.695312 164.457031 L 203.496094 221.457031 L 172 196 C 170.417969 194.722656 168.105469 194.96875 166.828125 196.550781 C 165.550781 198.128906 165.796875 200.445312 167.378906 201.722656 L 201.695312 229.472656 C 202.375 230.023438 203.191406 230.289062 204 230.289062 C 205.058594 230.289062 206.105469 229.839844 206.832031 228.957031 L 256.34375 169.160156 C 257.640625 167.597656 257.421875 165.285156 255.859375 163.988281 C 254.296875 162.675781 251.980469 162.886719 250.695312 164.457031 Z M 250.695312 164.457031 " fill-opacity="1" fill-rule="nonzero"/></svg>
