<svg xmlns="http://www.w3.org/2000/svg" xmlns:xlink="http://www.w3.org/1999/xlink" width="500" zoomAndPan="magnify" viewBox="0 0 375 374.999991" height="500" preserveAspectRatio="xMidYMid meet" version="1.0"><defs><clipPath id="e1f6289f38"><path d="M 185 0.15625 L 370.28125 0.15625 L 370.28125 189.703125 L 185 189.703125 Z M 185 0.15625 " clip-rule="nonzero"/></clipPath></defs><path fill="#ffffff" d="M 78.648438 52.652344 C 81.039062 54.019531 81.554688 56.648438 82.652344 59.015625 C 83.953125 61.820312 85.664062 64.570312 87.117188 67.328125 C 90.402344 73.59375 93.699219 79.855469 96.996094 86.113281 C 103.523438 98.484375 110.058594 110.851562 116.578125 123.226562 C 117.546875 125.066406 118.535156 126.96875 118.710938 129.039062 C 119.183594 134.605469 110.15625 140.863281 105.949219 143.457031 C 95.253906 150.058594 84.914062 154.96875 77.570312 165.769531 C 76.417969 167.457031 75.359375 169.265625 74.933594 171.265625 C 73.890625 176.1875 78.691406 182.984375 80.78125 187.265625 C 83.550781 192.949219 86.527344 198.53125 89.710938 203.992188 C 96.105469 214.964844 103.320312 225.464844 111.324219 235.328125 C 132.304688 261.175781 158.878906 282.726562 189.65625 295.75 C 191.789062 296.652344 204.957031 282.617188 206.882812 280.363281 C 211.796875 274.613281 216.042969 268.363281 221.519531 263.101562 C 228.984375 255.9375 235.109375 253.007812 244.234375 259.355469 C 262.433594 272.007812 281.015625 284.113281 299.945312 295.644531 C 325.996094 311.511719 288.183594 351.746094 271.324219 358.96875 C 234.1875 374.867188 190.242188 361.097656 156.8125 342.691406 C 89.289062 305.515625 37.003906 241.546875 14.007812 167.972656 C 8.554688 150.515625 4.660156 132.203125 6.460938 114 C 9.125 87.144531 26.960938 63.851562 52.695312 55.328125 C 59.582031 53.046875 66.820312 51.828125 74.074219 51.792969 C 75.449219 51.789062 76.875 51.828125 78.132812 52.390625 C 78.3125 52.472656 78.484375 52.5625 78.648438 52.652344 " fill-opacity="1" fill-rule="nonzero"/><g clip-path="url(#e1f6289f38)"><path fill="#ffffff" d="M 354.472656 108.882812 C 345.574219 89.042969 333.339844 71.050781 318.101562 55.414062 C 302.867188 39.777344 285.199219 27.078125 265.589844 17.667969 C 245.394531 7.976562 223.796875 2.109375 201.394531 0.222656 C 196.679688 -0.179688 192.160156 1.253906 189.011719 4.152344 C 186.574219 6.390625 185.238281 9.292969 185.242188 12.316406 C 185.242188 19.097656 191.386719 24.933594 199.238281 25.605469 C 277.664062 32.207031 340.3125 96.433594 344.8125 175.011719 L 344.8125 175.019531 C 345.277344 182.875 350.960938 189.171875 357.734375 189.347656 C 358.03125 189.355469 358.324219 189.351562 358.613281 189.335938 C 361.328125 189.171875 363.917969 187.9375 365.996094 185.792969 C 368.976562 182.71875 370.527344 178.242188 370.246094 173.515625 C 368.945312 151.066406 363.636719 129.328125 354.472656 108.882812 " fill-opacity="1" fill-rule="nonzero"/></g><path fill="#ffffff" d="M 276.109375 96.332031 C 263.992188 83.894531 249.957031 73.761719 234.398438 66.203125 C 218.378906 58.429688 201.242188 53.640625 183.457031 51.976562 C 179.046875 51.558594 174.835938 52.851562 171.90625 55.527344 C 169.699219 57.542969 168.484375 60.148438 168.488281 62.871094 L 168.453125 65.210938 L 168.453125 65.253906 C 168.460938 68.347656 169.847656 71.308594 172.359375 73.582031 C 174.6875 75.6875 177.746094 77.027344 181.03125 77.339844 C 241.582031 83.011719 288.59375 131.164062 292.578125 191.847656 L 292.578125 191.851562 C 292.90625 195.132812 294.089844 198.261719 296.132812 200.640625 C 298.34375 203.207031 301.273438 204.671875 304.371094 204.753906 L 306.757812 204.789062 C 307.019531 204.792969 307.28125 204.789062 307.542969 204.773438 C 309.984375 204.628906 312.320312 203.507812 314.191406 201.558594 C 316.945312 198.699219 318.347656 194.523438 318.042969 190.101562 C 316.84375 172.285156 312.5 155.027344 305.140625 138.8125 C 297.996094 123.0625 288.226562 108.765625 276.109375 96.332031 " fill-opacity="1" fill-rule="nonzero"/><path fill="#ffffff" d="M 251.039062 167.625 C 246.207031 157.257812 239.695312 147.835938 231.683594 139.617188 C 223.675781 131.394531 214.425781 124.644531 204.191406 119.542969 C 193.671875 114.300781 182.40625 110.960938 170.707031 109.613281 C 166.777344 109.152344 162.890625 110.261719 160.320312 112.570312 C 158.460938 114.234375 157.445312 116.386719 157.453125 118.632812 L 157.375 124.6875 L 157.375 124.742188 C 157.390625 127.332031 158.554688 129.8125 160.644531 131.726562 C 162.546875 133.46875 165.074219 134.601562 167.761719 134.917969 C 203.382812 139.023438 231.542969 167.925781 234.722656 203.640625 L 234.726562 203.648438 C 234.972656 206.335938 236.039062 208.890625 237.730469 210.835938 C 239.585938 212.980469 242.039062 214.203125 244.628906 214.289062 L 250.738281 214.367188 C 250.957031 214.375 251.171875 214.371094 251.386719 214.359375 C 253.402344 214.242188 255.328125 213.300781 256.871094 211.664062 C 259.25 209.148438 260.453125 205.296875 260.101562 201.359375 C 259.054688 189.625 256.003906 178.273438 251.039062 167.625 " fill-opacity="1" fill-rule="nonzero"/></svg>